G04 #@! TF.FileFunction,Legend,Top*
%FSLAX46Y46*%
G04 Gerber Fmt 4.6, Leading zero omitted, Abs format (unit mm)*
G04 Created by KiCad (PCBNEW 4.0.6-e0-6349~53~ubuntu16.04.1) date Thu May  4 16:02:32 2017*
%MOMM*%
%LPD*%
G01*
G04 APERTURE LIST*
%ADD10C,0.100000*%
%ADD11C,0.150000*%
G04 APERTURE END LIST*
D10*
D11*
X113375000Y-103600000D02*
X113375000Y-102400000D01*
X115125000Y-102400000D02*
X115125000Y-103600000D01*
X101875000Y-103600000D02*
X101875000Y-102400000D01*
X103625000Y-102400000D02*
X103625000Y-103600000D01*
X124375000Y-103600000D02*
X124375000Y-102400000D01*
X126125000Y-102400000D02*
X126125000Y-103600000D01*
X120699000Y-102936000D02*
X120699000Y-103136000D01*
X120699000Y-105530000D02*
X120699000Y-105350000D01*
X117471256Y-105219643D02*
G75*
G03X120699000Y-105536000I1727744J1003643D01*
G01*
X118146994Y-105349068D02*
G75*
G03X120250000Y-105350000I1052006J1133068D01*
G01*
X120686220Y-102909274D02*
G75*
G03X117449000Y-103256000I-1497220J-1306726D01*
G01*
X120212889Y-103136747D02*
G75*
G03X118165000Y-103156000I-1013889J-1079253D01*
G01*
X109449000Y-102936000D02*
X109449000Y-103136000D01*
X109449000Y-105530000D02*
X109449000Y-105350000D01*
X106221256Y-105219643D02*
G75*
G03X109449000Y-105536000I1727744J1003643D01*
G01*
X106896994Y-105349068D02*
G75*
G03X109000000Y-105350000I1052006J1133068D01*
G01*
X109436220Y-102909274D02*
G75*
G03X106199000Y-103256000I-1497220J-1306726D01*
G01*
X108962889Y-103136747D02*
G75*
G03X106915000Y-103156000I-1013889J-1079253D01*
G01*
X131949000Y-102936000D02*
X131949000Y-103136000D01*
X131949000Y-105530000D02*
X131949000Y-105350000D01*
X128721256Y-105219643D02*
G75*
G03X131949000Y-105536000I1727744J1003643D01*
G01*
X129396994Y-105349068D02*
G75*
G03X131500000Y-105350000I1052006J1133068D01*
G01*
X131936220Y-102909274D02*
G75*
G03X128699000Y-103256000I-1497220J-1306726D01*
G01*
X131462889Y-103136747D02*
G75*
G03X129415000Y-103156000I-1013889J-1079253D01*
G01*
X116802381Y-103166666D02*
X116326190Y-103500000D01*
X116802381Y-103738095D02*
X115802381Y-103738095D01*
X115802381Y-103357142D01*
X115850000Y-103261904D01*
X115897619Y-103214285D01*
X115992857Y-103166666D01*
X116135714Y-103166666D01*
X116230952Y-103214285D01*
X116278571Y-103261904D01*
X116326190Y-103357142D01*
X116326190Y-103738095D01*
X115802381Y-102833333D02*
X115802381Y-102214285D01*
X116183333Y-102547619D01*
X116183333Y-102404761D01*
X116230952Y-102309523D01*
X116278571Y-102261904D01*
X116373810Y-102214285D01*
X116611905Y-102214285D01*
X116707143Y-102261904D01*
X116754762Y-102309523D01*
X116802381Y-102404761D01*
X116802381Y-102690476D01*
X116754762Y-102785714D01*
X116707143Y-102833333D01*
X105302381Y-103166666D02*
X104826190Y-103500000D01*
X105302381Y-103738095D02*
X104302381Y-103738095D01*
X104302381Y-103357142D01*
X104350000Y-103261904D01*
X104397619Y-103214285D01*
X104492857Y-103166666D01*
X104635714Y-103166666D01*
X104730952Y-103214285D01*
X104778571Y-103261904D01*
X104826190Y-103357142D01*
X104826190Y-103738095D01*
X104397619Y-102785714D02*
X104350000Y-102738095D01*
X104302381Y-102642857D01*
X104302381Y-102404761D01*
X104350000Y-102309523D01*
X104397619Y-102261904D01*
X104492857Y-102214285D01*
X104588095Y-102214285D01*
X104730952Y-102261904D01*
X105302381Y-102833333D01*
X105302381Y-102214285D01*
X127802381Y-103166666D02*
X127326190Y-103500000D01*
X127802381Y-103738095D02*
X126802381Y-103738095D01*
X126802381Y-103357142D01*
X126850000Y-103261904D01*
X126897619Y-103214285D01*
X126992857Y-103166666D01*
X127135714Y-103166666D01*
X127230952Y-103214285D01*
X127278571Y-103261904D01*
X127326190Y-103357142D01*
X127326190Y-103738095D01*
X127802381Y-102214285D02*
X127802381Y-102785714D01*
X127802381Y-102500000D02*
X126802381Y-102500000D01*
X126945238Y-102595238D01*
X127040476Y-102690476D01*
X127088095Y-102785714D01*
X117851905Y-101642381D02*
X117851905Y-100642381D01*
X118090000Y-100642381D01*
X118232858Y-100690000D01*
X118328096Y-100785238D01*
X118375715Y-100880476D01*
X118423334Y-101070952D01*
X118423334Y-101213810D01*
X118375715Y-101404286D01*
X118328096Y-101499524D01*
X118232858Y-101594762D01*
X118090000Y-101642381D01*
X117851905Y-101642381D01*
X118756667Y-100642381D02*
X119375715Y-100642381D01*
X119042381Y-101023333D01*
X119185239Y-101023333D01*
X119280477Y-101070952D01*
X119328096Y-101118571D01*
X119375715Y-101213810D01*
X119375715Y-101451905D01*
X119328096Y-101547143D01*
X119280477Y-101594762D01*
X119185239Y-101642381D01*
X118899524Y-101642381D01*
X118804286Y-101594762D01*
X118756667Y-101547143D01*
X121928095Y-102962381D02*
X121928095Y-101962381D01*
X122499524Y-102962381D02*
X122070952Y-102390952D01*
X122499524Y-101962381D02*
X121928095Y-102533810D01*
X106601905Y-101642381D02*
X106601905Y-100642381D01*
X106840000Y-100642381D01*
X106982858Y-100690000D01*
X107078096Y-100785238D01*
X107125715Y-100880476D01*
X107173334Y-101070952D01*
X107173334Y-101213810D01*
X107125715Y-101404286D01*
X107078096Y-101499524D01*
X106982858Y-101594762D01*
X106840000Y-101642381D01*
X106601905Y-101642381D01*
X107554286Y-100737619D02*
X107601905Y-100690000D01*
X107697143Y-100642381D01*
X107935239Y-100642381D01*
X108030477Y-100690000D01*
X108078096Y-100737619D01*
X108125715Y-100832857D01*
X108125715Y-100928095D01*
X108078096Y-101070952D01*
X107506667Y-101642381D01*
X108125715Y-101642381D01*
X110678095Y-102962381D02*
X110678095Y-101962381D01*
X111249524Y-102962381D02*
X110820952Y-102390952D01*
X111249524Y-101962381D02*
X110678095Y-102533810D01*
X129101905Y-101642381D02*
X129101905Y-100642381D01*
X129340000Y-100642381D01*
X129482858Y-100690000D01*
X129578096Y-100785238D01*
X129625715Y-100880476D01*
X129673334Y-101070952D01*
X129673334Y-101213810D01*
X129625715Y-101404286D01*
X129578096Y-101499524D01*
X129482858Y-101594762D01*
X129340000Y-101642381D01*
X129101905Y-101642381D01*
X130625715Y-101642381D02*
X130054286Y-101642381D01*
X130340000Y-101642381D02*
X130340000Y-100642381D01*
X130244762Y-100785238D01*
X130149524Y-100880476D01*
X130054286Y-100928095D01*
X133178095Y-102962381D02*
X133178095Y-101962381D01*
X133749524Y-102962381D02*
X133320952Y-102390952D01*
X133749524Y-101962381D02*
X133178095Y-102533810D01*
M02*
