M48
;DRILL file {KiCad 4.0.6-e0-6349~53~ubuntu16.04.1} date Thu May  4 16:02:37 2017
;FORMAT={-:-/ absolute / metric / decimal}
FMAT,2
METRIC,TZ
T1C0.400
T2C1.001
T3C1.501
%
G90
G05
M71
T1
X99.75Y-103.25
X110.85Y-104.15
X110.85Y-107.15
X111.5Y-106.5
X111.5Y-107.7
X112.2Y-104.25
X131.75Y-104.25
X132.9Y-107.15
X136.25Y-102.55
X136.5Y-105.25
X142.25Y-105.75
X143.9Y-107.7
T2
X106.71Y-104.25
X109.25Y-104.25
X117.96Y-104.25
X120.5Y-104.25
X129.21Y-104.25
X131.75Y-104.25
T3
X94.9Y-102.15
X94.9Y-106.35
X146.1Y-102.15
X146.1Y-106.35
T0
M30
